<?xml version="1.0" encoding="iso-8859-1"?>
<!-- Generator: Adobe Illustrator 19.0.0, SVG Export Plug-In . SVG Version: 6.00 Build 0)  -->
<svg version="1.1" id="Capa_1" xmlns="http://www.w3.org/2000/svg" xmlns:xlink="http://www.w3.org/1999/xlink" x="0px" y="0px"
	 viewBox="0 0 512 512" style="enable-background:new 0 0 512 512;" xml:space="preserve">
<g>
	<path style="fill:#8CA1B6;" d="M504.471,187.294h-15.059V176c0-2.076-1.689-3.765-3.765-3.765s-3.765,1.689-3.765,3.765v5.647
		h-15.059V176c0-10.38,8.444-18.824,18.824-18.824c10.38,0,18.824,8.444,18.824,18.824V187.294z"/>
	<path style="fill:#8CA1B6;" d="M37.647,145.882H22.588V112c0-12.456,10.133-22.588,22.588-22.588S67.765,99.544,67.765,112v32
		H52.706v-32c0-4.152-3.377-7.529-7.529-7.529s-7.529,3.377-7.529,7.529V145.882z"/>
	<path style="fill:#8CA1B6;" d="M195.765,145.882h-15.059V112c0-12.456,10.133-22.588,22.588-22.588S225.882,99.544,225.882,112v32
		h-15.059v-32c0-4.152-3.377-7.529-7.529-7.529s-7.529,3.377-7.529,7.529V145.882z"/>
</g>
<polygon style="fill:#0083AD;" points="235.294,415.059 504.471,375.529 504.471,189.176 235.294,144 7.529,144 7.529,415.059 "/>
<g>
	<rect x="20.706" y="160.938" style="fill:#1FB5F3;" width="197.642" height="237.176"/>
	<rect x="257.877" y="181.649" style="fill:#1FB5F3;" width="20.706" height="195.765"/>
</g>
<g>
	<rect x="37.647" y="175.997" style="fill:#7FDDFF;" width="67.765" height="208.936"/>
	<rect x="135.529" y="175.997" style="fill:#7FDDFF;" width="67.765" height="208.936"/>
</g>
<rect x="65.877" y="264.473" style="fill:#AFC4D9;" width="107.289" height="30.118"/>
<rect x="65.877" y="279.531" style="fill:#8CA1B6;" width="107.289" height="15.059"/>
<g>
	<rect x="295.524" y="189.178" style="fill:#1FB5F3;" width="20.706" height="180.706"/>
	<rect x="333.171" y="196.708" style="fill:#1FB5F3;" width="20.706" height="165.647"/>
	<rect x="370.819" y="204.237" style="fill:#1FB5F3;" width="20.706" height="150.588"/>
	<rect x="410.353" y="211.767" style="fill:#1FB5F3;" width="20.706" height="135.529"/>
	<rect x="446.113" y="219.296" style="fill:#1FB5F3;" width="20.706" height="120.471"/>
</g>
<g>
	<rect x="67.765" y="211.767" style="fill:#8CA1B6;" width="15.059" height="15.059"/>
	<rect x="67.765" y="332.237" style="fill:#8CA1B6;" width="15.059" height="15.059"/>
	<rect x="158.118" y="211.767" style="fill:#8CA1B6;" width="15.059" height="15.059"/>
	<rect x="158.118" y="332.237" style="fill:#8CA1B6;" width="15.059" height="15.059"/>
</g>
<path d="M235.922,136.471H0v286.118h235.844L512,382.034V182.806L235.922,136.471z M143.059,241.882v-60.235h15.059v15.059h15.059
	v-15.059h22.588v195.765h-22.588v-15.059h-15.059v15.059h-15.059v-52.706H128v67.765h30.118v15.059H82.824v-15.059h30.118v-67.765
	H97.882v52.706H82.824v-15.059H67.765v15.059H45.176V181.647h22.588v15.059h15.059v-15.059h15.059v60.235h15.059v-75.294H82.824
	v-15.059h75.294v15.059H128v75.294L143.059,241.882L143.059,241.882z M15.059,151.529h52.706v15.059H30.118v225.882h37.647v15.059
	H15.059V151.529z M496.941,369.024l-256,37.595v-36.738h-15.059v37.647h-52.706V392.47h37.647V166.587h-37.647v-15.059h52.706
	v173.176h15.059V152.582l256,42.965V369.024z"/>
<rect x="225.882" y="339.767" width="15.059" height="15.059"/>
<path d="M82.824,241.882H67.765v15.059h-7.529v45.176h7.529v15.059h15.059v-15.059h75.294v15.059h15.059v-15.059h7.529v-45.176
	h-7.529v-15.059h-15.059v15.059H82.824V241.882z M165.647,287.059H75.294V272h90.353V287.059z"/>
<rect x="271.059" y="181.649" width="15.059" height="195.765"/>
<rect x="308.706" y="189.178" width="15.059" height="180.706"/>
<rect x="346.353" y="196.708" width="15.059" height="165.647"/>
<rect x="384" y="204.237" width="15.059" height="150.588"/>
<rect x="421.647" y="211.767" width="15.059" height="135.529"/>
<rect x="459.294" y="219.296" width="15.059" height="120.471"/>
<g>
</g>
<g>
</g>
<g>
</g>
<g>
</g>
<g>
</g>
<g>
</g>
<g>
</g>
<g>
</g>
<g>
</g>
<g>
</g>
<g>
</g>
<g>
</g>
<g>
</g>
<g>
</g>
<g>
</g>
</svg>
